<mxfile host="app.diagrams.net" modified="2023-11-14T11:51:10.435Z" agent="Mozilla/5.0 (Windows NT 10.0; Win64; x64) AppleWebKit/537.36 (KHTML, like Gecko) Chrome/119.0.0.0 Safari/537.36" etag="-7l5iS_wQfL3ZjCmyWIm" version="22.1.0" type="github">
  <diagram id="R2lEEEUBdFMjLlhIrx00" name="Page-1">
    <mxGraphModel dx="932" dy="871" grid="1" gridSize="10" guides="1" tooltips="1" connect="1" arrows="1" fold="1" page="1" pageScale="1" pageWidth="850" pageHeight="1100" math="0" shadow="0" extFonts="Permanent Marker^https://fonts.googleapis.com/css?family=Permanent+Marker">
      <root>
        <mxCell id="0" />
        <mxCell id="1" parent="0" />
        <mxCell id="psTy9fyIE-P_cYH_F1ER-15" value="A Student (Player)" style="swimlane;childLayout=stackLayout;horizontal=1;startSize=30;horizontalStack=0;rounded=1;fontSize=14;fontStyle=0;strokeWidth=2;resizeParent=0;resizeLast=1;shadow=0;dashed=0;align=center;arcSize=4;whiteSpace=wrap;html=1;" vertex="1" parent="1">
          <mxGeometry x="370" y="100" width="170" height="150" as="geometry" />
        </mxCell>
        <mxCell id="psTy9fyIE-P_cYH_F1ER-16" value="&lt;font style=&quot;font-size: 13px;&quot;&gt;&lt;u&gt;+ ID&lt;br&gt;&lt;/u&gt;+ balance&lt;br&gt;+ num_quests&lt;br&gt;+ received_quest&lt;br&gt;+ language&lt;br&gt;+ status_employment&lt;br&gt;&amp;nbsp;- num_colleagues&lt;br&gt;&lt;/font&gt;" style="align=left;strokeColor=none;fillColor=none;spacingLeft=4;fontSize=12;verticalAlign=top;resizable=0;rotatable=0;part=1;html=1;" vertex="1" parent="psTy9fyIE-P_cYH_F1ER-15">
          <mxGeometry y="30" width="170" height="120" as="geometry" />
        </mxCell>
        <mxCell id="psTy9fyIE-P_cYH_F1ER-17" value="Colleagues" style="swimlane;childLayout=stackLayout;horizontal=1;startSize=30;horizontalStack=0;rounded=1;fontSize=14;fontStyle=0;strokeWidth=2;resizeParent=0;resizeLast=1;shadow=0;dashed=0;align=center;arcSize=4;whiteSpace=wrap;html=1;" vertex="1" parent="1">
          <mxGeometry x="20" y="130" width="160" height="110" as="geometry" />
        </mxCell>
        <mxCell id="psTy9fyIE-P_cYH_F1ER-18" value="&lt;font style=&quot;font-size: 13px;&quot;&gt;&lt;u&gt;+ Name&lt;br&gt;&lt;/u&gt;+ Affiliation&lt;br&gt;&amp;nbsp;- first_major_or_not&lt;br&gt;+ language&lt;br&gt;&lt;/font&gt;" style="align=left;strokeColor=none;fillColor=none;spacingLeft=4;fontSize=12;verticalAlign=top;resizable=0;rotatable=0;part=1;html=1;" vertex="1" parent="psTy9fyIE-P_cYH_F1ER-17">
          <mxGeometry y="30" width="160" height="80" as="geometry" />
        </mxCell>
        <mxCell id="psTy9fyIE-P_cYH_F1ER-65" style="edgeStyle=orthogonalEdgeStyle;rounded=0;orthogonalLoop=1;jettySize=auto;html=1;exitX=1;exitY=0.5;exitDx=0;exitDy=0;entryX=0;entryY=0.5;entryDx=0;entryDy=0;" edge="1" parent="1" source="psTy9fyIE-P_cYH_F1ER-19" target="psTy9fyIE-P_cYH_F1ER-16">
          <mxGeometry relative="1" as="geometry" />
        </mxCell>
        <mxCell id="psTy9fyIE-P_cYH_F1ER-19" value="sec_colleagues" style="rhombus;whiteSpace=wrap;html=1;fontSize=14;fontStyle=0;startSize=30;rounded=1;strokeWidth=2;shadow=0;dashed=0;arcSize=4;" vertex="1" parent="1">
          <mxGeometry x="200" y="150" width="140" height="80" as="geometry" />
        </mxCell>
        <mxCell id="psTy9fyIE-P_cYH_F1ER-23" value="Tools (Language)" style="swimlane;childLayout=stackLayout;horizontal=1;startSize=30;horizontalStack=0;rounded=1;fontSize=14;fontStyle=0;strokeWidth=2;resizeParent=0;resizeLast=1;shadow=0;dashed=0;align=center;arcSize=4;whiteSpace=wrap;html=1;" vertex="1" parent="1">
          <mxGeometry x="20" y="420" width="160" height="160" as="geometry" />
        </mxCell>
        <mxCell id="psTy9fyIE-P_cYH_F1ER-24" value="&lt;font style=&quot;font-size: 13px;&quot;&gt;&lt;u&gt;+ language_name&lt;br&gt;&lt;/u&gt;+ features&lt;br&gt;&amp;nbsp;+ reliability&lt;br&gt;&amp;nbsp;+ readability&lt;br&gt;&amp;nbsp;+ memory_efficiency&lt;br&gt;&amp;nbsp;+ portability&lt;br&gt;&amp;nbsp;+ difficaulty&lt;br&gt;&lt;/font&gt;" style="align=left;strokeColor=none;fillColor=none;spacingLeft=4;fontSize=12;verticalAlign=top;resizable=0;rotatable=0;part=1;html=1;" vertex="1" parent="psTy9fyIE-P_cYH_F1ER-23">
          <mxGeometry y="30" width="160" height="130" as="geometry" />
        </mxCell>
        <mxCell id="psTy9fyIE-P_cYH_F1ER-25" value="" style="rhombus;whiteSpace=wrap;html=1;fontSize=14;fontStyle=0;startSize=30;rounded=1;strokeWidth=2;shadow=0;dashed=0;arcSize=4;" vertex="1" parent="psTy9fyIE-P_cYH_F1ER-23">
          <mxGeometry y="160" width="160" as="geometry" />
        </mxCell>
        <mxCell id="psTy9fyIE-P_cYH_F1ER-67" style="edgeStyle=orthogonalEdgeStyle;rounded=0;orthogonalLoop=1;jettySize=auto;html=1;exitX=0.5;exitY=0;exitDx=0;exitDy=0;entryX=0.5;entryY=1;entryDx=0;entryDy=0;" edge="1" parent="1" source="psTy9fyIE-P_cYH_F1ER-29" target="psTy9fyIE-P_cYH_F1ER-18">
          <mxGeometry relative="1" as="geometry" />
        </mxCell>
        <mxCell id="psTy9fyIE-P_cYH_F1ER-29" value="sec_language" style="rhombus;whiteSpace=wrap;html=1;fontSize=14;fontStyle=0;startSize=30;rounded=1;strokeWidth=2;shadow=0;dashed=0;arcSize=4;" vertex="1" parent="1">
          <mxGeometry x="30" y="290" width="140" height="80" as="geometry" />
        </mxCell>
        <mxCell id="psTy9fyIE-P_cYH_F1ER-44" value="" style="edgeStyle=orthogonalEdgeStyle;rounded=0;orthogonalLoop=1;jettySize=auto;html=1;shape=link;" edge="1" parent="1" source="psTy9fyIE-P_cYH_F1ER-34">
          <mxGeometry relative="1" as="geometry">
            <mxPoint x="450" y="550" as="targetPoint" />
          </mxGeometry>
        </mxCell>
        <mxCell id="psTy9fyIE-P_cYH_F1ER-48" value="" style="edgeStyle=orthogonalEdgeStyle;rounded=0;orthogonalLoop=1;jettySize=auto;html=1;shape=link;" edge="1" parent="1" source="psTy9fyIE-P_cYH_F1ER-34">
          <mxGeometry relative="1" as="geometry">
            <mxPoint x="570" y="480" as="targetPoint" />
          </mxGeometry>
        </mxCell>
        <mxCell id="psTy9fyIE-P_cYH_F1ER-34" value="assignments" style="swimlane;childLayout=stackLayout;horizontal=1;startSize=30;horizontalStack=0;rounded=1;fontSize=14;fontStyle=0;strokeWidth=2;resizeParent=0;resizeLast=1;shadow=1;align=center;arcSize=4;whiteSpace=wrap;html=1;backgroundOutline=0;fixedWidth=0;" vertex="1" parent="1">
          <mxGeometry x="370" y="430" width="160" height="100" as="geometry" />
        </mxCell>
        <mxCell id="psTy9fyIE-P_cYH_F1ER-35" value="&lt;font style=&quot;font-size: 13px;&quot;&gt;+ &lt;u&gt;num_assignment&lt;/u&gt;&lt;br&gt;+ &lt;u&gt;weights&lt;/u&gt;&lt;br&gt;+&amp;nbsp;type_assignment&lt;br&gt;&lt;/font&gt;" style="align=left;strokeColor=none;fillColor=none;spacingLeft=4;fontSize=12;verticalAlign=top;resizable=0;rotatable=0;part=1;html=1;" vertex="1" parent="psTy9fyIE-P_cYH_F1ER-34">
          <mxGeometry y="30" width="160" height="70" as="geometry" />
        </mxCell>
        <mxCell id="psTy9fyIE-P_cYH_F1ER-37" value="project" style="swimlane;childLayout=stackLayout;horizontal=1;startSize=30;horizontalStack=0;rounded=1;fontSize=14;fontStyle=0;strokeWidth=2;resizeParent=0;resizeLast=1;shadow=0;dashed=0;align=center;arcSize=4;whiteSpace=wrap;html=1;" vertex="1" parent="1">
          <mxGeometry x="370" y="660" width="160" height="170" as="geometry" />
        </mxCell>
        <mxCell id="psTy9fyIE-P_cYH_F1ER-38" value="&lt;font style=&quot;font-size: 13px;&quot;&gt;+ &lt;u&gt;name_project&lt;/u&gt;&lt;br&gt;+ difficulty&lt;br&gt;+&amp;nbsp;features_weight&lt;br&gt;&amp;nbsp;+ reliability&lt;br style=&quot;border-color: var(--border-color);&quot;&gt;&amp;nbsp;+ readability&lt;br style=&quot;border-color: var(--border-color);&quot;&gt;&amp;nbsp;+ memory_efficiency&lt;br style=&quot;border-color: var(--border-color);&quot;&gt;&amp;nbsp;+ portability&lt;br style=&quot;border-color: var(--border-color);&quot;&gt;&amp;nbsp;+ difficaulty&lt;br&gt;&lt;/font&gt;" style="align=left;strokeColor=none;fillColor=none;spacingLeft=4;fontSize=12;verticalAlign=top;resizable=0;rotatable=0;part=1;html=1;" vertex="1" parent="psTy9fyIE-P_cYH_F1ER-37">
          <mxGeometry y="30" width="160" height="140" as="geometry" />
        </mxCell>
        <mxCell id="psTy9fyIE-P_cYH_F1ER-95" style="edgeStyle=orthogonalEdgeStyle;rounded=0;orthogonalLoop=1;jettySize=auto;html=1;exitX=0.5;exitY=0;exitDx=0;exitDy=0;entryX=0.5;entryY=1;entryDx=0;entryDy=0;shape=link;" edge="1" parent="1" source="psTy9fyIE-P_cYH_F1ER-39" target="psTy9fyIE-P_cYH_F1ER-94">
          <mxGeometry relative="1" as="geometry" />
        </mxCell>
        <mxCell id="psTy9fyIE-P_cYH_F1ER-39" value="quiz" style="swimlane;childLayout=stackLayout;horizontal=1;startSize=30;horizontalStack=0;rounded=1;fontSize=14;fontStyle=0;strokeWidth=2;resizeParent=0;resizeLast=1;shadow=0;dashed=0;align=center;arcSize=4;whiteSpace=wrap;html=1;" vertex="1" parent="1">
          <mxGeometry x="730" y="430" width="160" height="100" as="geometry" />
        </mxCell>
        <mxCell id="psTy9fyIE-P_cYH_F1ER-40" value="&lt;font style=&quot;font-size: 13px;&quot;&gt;+ &lt;u&gt;name_quiz&lt;/u&gt;&lt;br&gt;+ num_quizs&lt;br&gt;+ features_weight&lt;br&gt;&lt;/font&gt;" style="align=left;strokeColor=none;fillColor=none;spacingLeft=4;fontSize=12;verticalAlign=top;resizable=0;rotatable=0;part=1;html=1;" vertex="1" parent="psTy9fyIE-P_cYH_F1ER-39">
          <mxGeometry y="30" width="160" height="70" as="geometry" />
        </mxCell>
        <mxCell id="psTy9fyIE-P_cYH_F1ER-99" style="edgeStyle=orthogonalEdgeStyle;rounded=0;orthogonalLoop=1;jettySize=auto;html=1;exitX=0;exitY=0.5;exitDx=0;exitDy=0;entryX=1;entryY=0.5;entryDx=0;entryDy=0;shape=link;" edge="1" parent="1" source="psTy9fyIE-P_cYH_F1ER-41" target="psTy9fyIE-P_cYH_F1ER-97">
          <mxGeometry relative="1" as="geometry" />
        </mxCell>
        <mxCell id="psTy9fyIE-P_cYH_F1ER-41" value="contest" style="swimlane;childLayout=stackLayout;horizontal=1;startSize=30;horizontalStack=0;rounded=1;fontSize=14;fontStyle=0;strokeWidth=2;resizeParent=0;resizeLast=1;shadow=0;dashed=0;align=center;arcSize=4;whiteSpace=wrap;html=1;" vertex="1" parent="1">
          <mxGeometry x="730" y="660" width="160" height="100" as="geometry" />
        </mxCell>
        <mxCell id="psTy9fyIE-P_cYH_F1ER-42" value="&lt;font style=&quot;font-size: 13px;&quot;&gt;+ &lt;u&gt;name_contest&lt;/u&gt;&lt;br&gt;+ week_or_weekend&lt;br&gt;+ place_contest&lt;br&gt;&lt;/font&gt;" style="align=left;strokeColor=none;fillColor=none;spacingLeft=4;fontSize=12;verticalAlign=top;resizable=0;rotatable=0;part=1;html=1;" vertex="1" parent="psTy9fyIE-P_cYH_F1ER-41">
          <mxGeometry y="30" width="160" height="70" as="geometry" />
        </mxCell>
        <mxCell id="psTy9fyIE-P_cYH_F1ER-50" style="edgeStyle=orthogonalEdgeStyle;rounded=0;orthogonalLoop=1;jettySize=auto;html=1;exitX=1;exitY=1;exitDx=0;exitDy=0;shape=link;" edge="1" parent="1" source="psTy9fyIE-P_cYH_F1ER-35">
          <mxGeometry relative="1" as="geometry">
            <mxPoint x="640" y="590" as="targetPoint" />
          </mxGeometry>
        </mxCell>
        <mxCell id="psTy9fyIE-P_cYH_F1ER-54" value="basic_score" style="whiteSpace=wrap;html=1;fontSize=14;fontStyle=0;startSize=30;rounded=1;strokeWidth=2;shadow=0;dashed=0;arcSize=4;" vertex="1" parent="1">
          <mxGeometry x="570" y="310" width="80" height="40" as="geometry" />
        </mxCell>
        <mxCell id="psTy9fyIE-P_cYH_F1ER-56" value="" style="endArrow=none;html=1;rounded=0;exitX=0;exitY=0.5;exitDx=0;exitDy=0;entryX=0.964;entryY=0.5;entryDx=0;entryDy=0;entryPerimeter=0;" edge="1" parent="1" source="psTy9fyIE-P_cYH_F1ER-54" target="psTy9fyIE-P_cYH_F1ER-61">
          <mxGeometry relative="1" as="geometry">
            <mxPoint x="280" y="480" as="sourcePoint" />
            <mxPoint x="530" y="330" as="targetPoint" />
          </mxGeometry>
        </mxCell>
        <mxCell id="psTy9fyIE-P_cYH_F1ER-72" style="edgeStyle=orthogonalEdgeStyle;rounded=0;orthogonalLoop=1;jettySize=auto;html=1;exitX=0.5;exitY=0;exitDx=0;exitDy=0;entryX=0.5;entryY=1;entryDx=0;entryDy=0;" edge="1" parent="1" source="psTy9fyIE-P_cYH_F1ER-61" target="psTy9fyIE-P_cYH_F1ER-16">
          <mxGeometry relative="1" as="geometry" />
        </mxCell>
        <mxCell id="psTy9fyIE-P_cYH_F1ER-61" value="sec_assignment" style="rhombus;whiteSpace=wrap;html=1;fontSize=14;fontStyle=0;startSize=30;rounded=1;strokeWidth=2;shadow=0;dashed=0;arcSize=4;" vertex="1" parent="1">
          <mxGeometry x="385" y="290" width="140" height="80" as="geometry" />
        </mxCell>
        <mxCell id="psTy9fyIE-P_cYH_F1ER-66" value="" style="endArrow=none;html=1;rounded=0;exitX=0.994;exitY=0.386;exitDx=0;exitDy=0;exitPerimeter=0;entryX=0;entryY=0.5;entryDx=0;entryDy=0;" edge="1" parent="1" source="psTy9fyIE-P_cYH_F1ER-18" target="psTy9fyIE-P_cYH_F1ER-19">
          <mxGeometry relative="1" as="geometry">
            <mxPoint x="280" y="480" as="sourcePoint" />
            <mxPoint x="440" y="480" as="targetPoint" />
          </mxGeometry>
        </mxCell>
        <mxCell id="psTy9fyIE-P_cYH_F1ER-68" value="" style="endArrow=none;html=1;rounded=0;exitX=0.5;exitY=1;exitDx=0;exitDy=0;entryX=0.5;entryY=0;entryDx=0;entryDy=0;shape=link;" edge="1" parent="1" source="psTy9fyIE-P_cYH_F1ER-29" target="psTy9fyIE-P_cYH_F1ER-23">
          <mxGeometry relative="1" as="geometry">
            <mxPoint x="280" y="480" as="sourcePoint" />
            <mxPoint x="440" y="480" as="targetPoint" />
          </mxGeometry>
        </mxCell>
        <mxCell id="psTy9fyIE-P_cYH_F1ER-73" value="" style="endArrow=none;html=1;rounded=0;exitX=0.5;exitY=1;exitDx=0;exitDy=0;entryX=0.554;entryY=0.002;entryDx=0;entryDy=0;entryPerimeter=0;shape=link;" edge="1" parent="1" source="psTy9fyIE-P_cYH_F1ER-61" target="psTy9fyIE-P_cYH_F1ER-34">
          <mxGeometry relative="1" as="geometry">
            <mxPoint x="330" y="480" as="sourcePoint" />
            <mxPoint x="490" y="480" as="targetPoint" />
          </mxGeometry>
        </mxCell>
        <mxCell id="psTy9fyIE-P_cYH_F1ER-80" style="edgeStyle=orthogonalEdgeStyle;rounded=0;orthogonalLoop=1;jettySize=auto;html=1;exitX=0.5;exitY=0;exitDx=0;exitDy=0;entryX=0;entryY=1;entryDx=0;entryDy=0;" edge="1" parent="1" source="psTy9fyIE-P_cYH_F1ER-78" target="psTy9fyIE-P_cYH_F1ER-16">
          <mxGeometry relative="1" as="geometry" />
        </mxCell>
        <mxCell id="psTy9fyIE-P_cYH_F1ER-78" value="sec_language" style="shape=rhombus;perimeter=rhombusPerimeter;whiteSpace=wrap;html=1;align=center;" vertex="1" parent="1">
          <mxGeometry x="200" y="310" width="140" height="70" as="geometry" />
        </mxCell>
        <mxCell id="psTy9fyIE-P_cYH_F1ER-81" value="" style="endArrow=none;html=1;rounded=0;entryX=0.5;entryY=1;entryDx=0;entryDy=0;shape=link;" edge="1" parent="1" target="psTy9fyIE-P_cYH_F1ER-78">
          <mxGeometry relative="1" as="geometry">
            <mxPoint x="180" y="510" as="sourcePoint" />
            <mxPoint x="340" y="510" as="targetPoint" />
            <Array as="points">
              <mxPoint x="270" y="510" />
            </Array>
          </mxGeometry>
        </mxCell>
        <mxCell id="psTy9fyIE-P_cYH_F1ER-83" style="edgeStyle=orthogonalEdgeStyle;rounded=0;orthogonalLoop=1;jettySize=auto;html=1;exitX=1;exitY=0.5;exitDx=0;exitDy=0;entryX=0;entryY=0.5;entryDx=0;entryDy=0;shape=link;" edge="1" parent="1" source="psTy9fyIE-P_cYH_F1ER-82" target="psTy9fyIE-P_cYH_F1ER-38">
          <mxGeometry relative="1" as="geometry" />
        </mxCell>
        <mxCell id="psTy9fyIE-P_cYH_F1ER-82" value="&lt;font style=&quot;font-size: 15px;&quot;&gt;calculate_score&lt;/font&gt;" style="shape=rhombus;perimeter=rhombusPerimeter;whiteSpace=wrap;html=1;align=center;" vertex="1" parent="1">
          <mxGeometry x="150" y="720" width="140" height="80" as="geometry" />
        </mxCell>
        <mxCell id="psTy9fyIE-P_cYH_F1ER-85" value="" style="endArrow=none;html=1;rounded=0;exitX=0.5;exitY=0;exitDx=0;exitDy=0;entryX=0.127;entryY=1.011;entryDx=0;entryDy=0;entryPerimeter=0;" edge="1" parent="1" source="psTy9fyIE-P_cYH_F1ER-82">
          <mxGeometry relative="1" as="geometry">
            <mxPoint x="224.84" y="720" as="sourcePoint" />
            <mxPoint x="395.1599999999999" y="251.31999999999994" as="targetPoint" />
            <Array as="points">
              <mxPoint x="220" y="540" />
              <mxPoint x="344.84" y="540" />
              <mxPoint x="344.84" y="300" />
              <mxPoint x="394.84" y="300" />
            </Array>
          </mxGeometry>
        </mxCell>
        <mxCell id="psTy9fyIE-P_cYH_F1ER-91" value="" style="endArrow=none;html=1;rounded=0;exitX=0.5;exitY=0;exitDx=0;exitDy=0;entryX=0.5;entryY=1;entryDx=0;entryDy=0;" edge="1" parent="1" source="psTy9fyIE-P_cYH_F1ER-37">
          <mxGeometry relative="1" as="geometry">
            <mxPoint x="350" y="460" as="sourcePoint" />
            <mxPoint x="450" y="630" as="targetPoint" />
          </mxGeometry>
        </mxCell>
        <mxCell id="psTy9fyIE-P_cYH_F1ER-92" value="" style="endArrow=none;html=1;rounded=0;exitX=1;exitY=0.5;exitDx=0;exitDy=0;entryX=0.451;entryY=-0.039;entryDx=0;entryDy=0;entryPerimeter=0;" edge="1" parent="1" target="psTy9fyIE-P_cYH_F1ER-41">
          <mxGeometry relative="1" as="geometry">
            <mxPoint x="700" y="620" as="sourcePoint" />
            <mxPoint x="510" y="460" as="targetPoint" />
            <Array as="points">
              <mxPoint x="802" y="620" />
            </Array>
          </mxGeometry>
        </mxCell>
        <mxCell id="psTy9fyIE-P_cYH_F1ER-93" value="" style="endArrow=none;html=1;rounded=0;exitX=0;exitY=0.25;exitDx=0;exitDy=0;entryX=1;entryY=0.5;entryDx=0;entryDy=0;" edge="1" parent="1" source="psTy9fyIE-P_cYH_F1ER-40" target="psTy9fyIE-P_cYH_F1ER-106">
          <mxGeometry relative="1" as="geometry">
            <mxPoint x="350" y="460" as="sourcePoint" />
            <mxPoint x="690" y="480" as="targetPoint" />
          </mxGeometry>
        </mxCell>
        <mxCell id="psTy9fyIE-P_cYH_F1ER-94" value="calculate_score" style="shape=rhombus;perimeter=rhombusPerimeter;whiteSpace=wrap;html=1;align=center;" vertex="1" parent="1">
          <mxGeometry x="750" y="130" width="120" height="60" as="geometry" />
        </mxCell>
        <mxCell id="psTy9fyIE-P_cYH_F1ER-96" value="" style="endArrow=none;html=1;rounded=0;exitX=1;exitY=0.25;exitDx=0;exitDy=0;entryX=0;entryY=0.5;entryDx=0;entryDy=0;" edge="1" parent="1" source="psTy9fyIE-P_cYH_F1ER-16" target="psTy9fyIE-P_cYH_F1ER-94">
          <mxGeometry relative="1" as="geometry">
            <mxPoint x="350" y="460" as="sourcePoint" />
            <mxPoint x="510" y="460" as="targetPoint" />
          </mxGeometry>
        </mxCell>
        <mxCell id="psTy9fyIE-P_cYH_F1ER-97" value="calculate_score" style="shape=rhombus;perimeter=rhombusPerimeter;whiteSpace=wrap;html=1;align=center;" vertex="1" parent="1">
          <mxGeometry x="570" y="190" width="120" height="60" as="geometry" />
        </mxCell>
        <mxCell id="psTy9fyIE-P_cYH_F1ER-98" value="" style="endArrow=none;html=1;rounded=0;exitX=0;exitY=0.5;exitDx=0;exitDy=0;entryX=1;entryY=0.75;entryDx=0;entryDy=0;" edge="1" parent="1" source="psTy9fyIE-P_cYH_F1ER-97" target="psTy9fyIE-P_cYH_F1ER-16">
          <mxGeometry relative="1" as="geometry">
            <mxPoint x="350" y="460" as="sourcePoint" />
            <mxPoint x="510" y="460" as="targetPoint" />
          </mxGeometry>
        </mxCell>
        <mxCell id="psTy9fyIE-P_cYH_F1ER-100" value="check_remain" style="shape=rhombus;perimeter=rhombusPerimeter;whiteSpace=wrap;html=1;align=center;" vertex="1" parent="1">
          <mxGeometry x="390" y="20" width="120" height="60" as="geometry" />
        </mxCell>
        <mxCell id="psTy9fyIE-P_cYH_F1ER-102" value="" style="endArrow=none;html=1;rounded=0;exitX=1;exitY=0.5;exitDx=0;exitDy=0;entryX=0.943;entryY=-0.003;entryDx=0;entryDy=0;entryPerimeter=0;" edge="1" parent="1" source="psTy9fyIE-P_cYH_F1ER-100" target="psTy9fyIE-P_cYH_F1ER-15">
          <mxGeometry relative="1" as="geometry">
            <mxPoint x="350" y="350" as="sourcePoint" />
            <mxPoint x="510" y="350" as="targetPoint" />
            <Array as="points">
              <mxPoint x="530" y="50" />
            </Array>
          </mxGeometry>
        </mxCell>
        <mxCell id="psTy9fyIE-P_cYH_F1ER-103" value="" style="endArrow=none;html=1;rounded=0;exitX=0;exitY=0.5;exitDx=0;exitDy=0;entryX=0;entryY=0;entryDx=0;entryDy=0;" edge="1" parent="1" source="psTy9fyIE-P_cYH_F1ER-100" target="psTy9fyIE-P_cYH_F1ER-15">
          <mxGeometry relative="1" as="geometry">
            <mxPoint x="350" y="350" as="sourcePoint" />
            <mxPoint x="510" y="350" as="targetPoint" />
            <Array as="points">
              <mxPoint x="370" y="50" />
            </Array>
          </mxGeometry>
        </mxCell>
        <mxCell id="psTy9fyIE-P_cYH_F1ER-105" value="&lt;font style=&quot;font-size: 14px;&quot;&gt;sec_contest&lt;/font&gt;" style="shape=rhombus;double=1;perimeter=rhombusPerimeter;whiteSpace=wrap;html=1;align=center;" vertex="1" parent="1">
          <mxGeometry x="580" y="590" width="120" height="60" as="geometry" />
        </mxCell>
        <mxCell id="psTy9fyIE-P_cYH_F1ER-106" value="&lt;font style=&quot;font-size: 14px;&quot;&gt;sec_quiz&lt;/font&gt;" style="shape=rhombus;double=1;perimeter=rhombusPerimeter;whiteSpace=wrap;html=1;align=center;" vertex="1" parent="1">
          <mxGeometry x="570" y="445" width="120" height="70" as="geometry" />
        </mxCell>
        <mxCell id="psTy9fyIE-P_cYH_F1ER-107" value="&lt;font style=&quot;font-size: 14px;&quot;&gt;sec_project&lt;/font&gt;" style="shape=rhombus;double=1;perimeter=rhombusPerimeter;whiteSpace=wrap;html=1;align=center;" vertex="1" parent="1">
          <mxGeometry x="380" y="550" width="140" height="80" as="geometry" />
        </mxCell>
      </root>
    </mxGraphModel>
  </diagram>
</mxfile>
